<svg width="24" height="24" viewBox="0 0 24 24" fill="none" xmlns="http://www.w3.org/2000/svg">
    <path fill-rule="evenodd" clip-rule="evenodd"
        d="M11.3525 1.69075C11.5946 1.64232 11.845 1.65442 12.0813 1.72598C12.3177 1.79754 12.5327 1.92635 12.7073 2.10096L11.5005 2.25012M11.5005 2.25012L11.3525 1.69075L11.5005 2.25012ZM3.79113 3.20302L11.3525 1.69075L11.5005 2.25012M4.57559 4.57583L3.16138 11.6469L12.9538 21.4394L21.4391 12.9541L11.6467 3.16162L4.57559 4.57583ZM12.7073 2.10096L22.4998 11.8934C22.6391 12.0327 22.7495 12.1981 22.8249 12.38C22.9003 12.562 22.9391 12.7571 22.9391 12.9541C22.9391 13.1511 22.9003 13.3461 22.8249 13.5281C22.7495 13.7101 22.6391 13.8754 22.4998 14.0147L14.0145 22.5C13.8752 22.6393 13.7098 22.7498 13.5279 22.8252C13.3459 22.9006 13.1508 22.9394 12.9538 22.9394C12.7568 22.9394 12.5618 22.9006 12.3798 22.8252C12.1978 22.7498 12.0325 22.6393 11.8932 22.5L2.10072 12.7076C1.9261 12.5329 1.7973 12.3179 1.72574 12.0816C1.65418 11.8452 1.64208 11.5949 1.69051 11.3527L3.20278 3.79137C3.26216 3.49447 3.49423 3.2624 3.79113 3.20302"
        fill="#383432" />
    <path
        d="M7.875 9C8.49632 9 9 8.49632 9 7.875C9 7.25368 8.49632 6.75 7.875 6.75C7.25368 6.75 6.75 7.25368 6.75 7.875C6.75 8.49632 7.25368 9 7.875 9Z"
        fill="#383432" />
</svg>
