<svg width="24" height="24" viewBox="0 0 24 24" fill="none" xmlns="http://www.w3.org/2000/svg">
    <path fill-rule="evenodd" clip-rule="evenodd"
        d="M12 3.75C7.44365 3.75 3.75 7.44365 3.75 12C3.75 16.5563 7.44365 20.25 12 20.25C16.5563 20.25 20.25 16.5563 20.25 12C20.25 7.44365 16.5563 3.75 12 3.75ZM2.25 12C2.25 6.61522 6.61522 2.25 12 2.25C17.3848 2.25 21.75 6.61522 21.75 12C21.75 17.3848 17.3848 21.75 12 21.75C6.61522 21.75 2.25 17.3848 2.25 12Z"
        fill="#383432" />
    <path
        d="M12 18C12.6213 18 13.125 17.4963 13.125 16.875C13.125 16.2537 12.6213 15.75 12 15.75C11.3787 15.75 10.875 16.2537 10.875 16.875C10.875 17.4963 11.3787 18 12 18Z"
        fill="#383432" />
    <path fill-rule="evenodd" clip-rule="evenodd"
        d="M10.7083 7.0074C11.325 6.75195 12.0036 6.68511 12.6583 6.81534C13.313 6.94556 13.9144 7.267 14.3864 7.739C14.8584 8.21101 15.1798 8.81237 15.31 9.46706C15.4403 10.1217 15.3734 10.8003 15.118 11.417C14.8625 12.0337 14.4299 12.5609 13.8749 12.9317C13.5308 13.1616 13.1493 13.3251 12.7499 13.4161V13.5005C12.7499 13.9147 12.4141 14.2505 11.9999 14.2505C11.5857 14.2505 11.2499 13.9147 11.2499 13.5005V12.7505C11.2499 12.5516 11.3289 12.3608 11.4695 12.2202C11.6102 12.0795 11.801 12.0005 11.9999 12.0005C12.3707 12.0005 12.7332 11.8905 13.0416 11.6845C13.3499 11.4785 13.5902 11.1856 13.7322 10.843C13.8741 10.5004 13.9112 10.1234 13.8388 9.7597C13.7665 9.39598 13.5879 9.06189 13.3257 8.79967C13.0635 8.53744 12.7294 8.35886 12.3657 8.28652C12.002 8.21417 11.625 8.2513 11.2823 8.39322C10.9397 8.53513 10.6469 8.77545 10.4409 9.0838C10.2348 9.39214 10.1249 9.75465 10.1249 10.1255C10.1249 10.5397 9.78909 10.8755 9.37488 10.8755C8.96066 10.8755 8.62488 10.5397 8.62488 10.1255C8.62488 9.45798 8.82282 8.80546 9.19367 8.25044C9.56452 7.69542 10.0916 7.26284 10.7083 7.0074Z"
        fill="#383432" />
</svg>
