<svg width="24" height="24" viewBox="0 0 24 24" fill="none" xmlns="http://www.w3.org/2000/svg">
    <path fill-rule="evenodd" clip-rule="evenodd"
        d="M12 6.75C12.4142 6.75 12.75 7.08579 12.75 7.5V12C12.75 12.4142 12.4142 12.75 12 12.75C11.5858 12.75 11.25 12.4142 11.25 12V7.5C11.25 7.08579 11.5858 6.75 12 6.75Z"
        fill="#383432" />
    <path fill-rule="evenodd" clip-rule="evenodd"
        d="M11.3504 11.6251C11.5575 11.2664 12.0162 11.1435 12.3749 11.3506L16.272 13.6006C16.6307 13.8077 16.7536 14.2664 16.5465 14.6251C16.3394 14.9838 15.8807 15.1068 15.522 14.8996L11.6249 12.6496C11.2662 12.4425 11.1433 11.9838 11.3504 11.6251Z"
        fill="#383432" />
    <path fill-rule="evenodd" clip-rule="evenodd"
        d="M2.98407 4.84839C3.39828 4.84839 3.73407 5.18418 3.73407 5.59839V8.59839H6.73407C7.14828 8.59839 7.48407 8.93418 7.48407 9.34839C7.48407 9.7626 7.14828 10.0984 6.73407 10.0984H2.98407C2.56986 10.0984 2.23407 9.7626 2.23407 9.34839V5.59839C2.23407 5.18418 2.56986 4.84839 2.98407 4.84839Z"
        fill="#383432" />
    <path fill-rule="evenodd" clip-rule="evenodd"
        d="M10.2439 3.17294C11.9898 2.82567 13.7994 3.0039 15.4439 3.68509C17.0884 4.36628 18.494 5.51983 19.483 6.99987C20.4719 8.47991 20.9997 10.22 20.9997 12C20.9997 13.78 20.4719 15.5201 19.483 17.0001C18.494 18.4802 17.0884 19.6337 15.4439 20.3149C13.7994 20.9961 11.9898 21.1743 10.2439 20.8271C8.4981 20.4798 6.89445 19.6226 5.63578 18.364C5.34289 18.0711 5.34289 17.5962 5.63578 17.3033C5.92867 17.0104 6.40355 17.0104 6.69644 17.3033C7.74533 18.3522 9.08171 19.0665 10.5366 19.3559C11.9914 19.6453 13.4994 19.4968 14.8699 18.9291C16.2403 18.3614 17.4117 17.4001 18.2358 16.1668C19.0599 14.9334 19.4997 13.4834 19.4997 12C19.4997 10.5166 19.0599 9.0666 18.2358 7.83323C17.4117 6.59986 16.2403 5.63856 14.8699 5.07091C13.4994 4.50325 11.9914 4.35473 10.5366 4.64411C9.08171 4.9335 7.74533 5.64781 6.69644 6.6967L3.51446 9.87868C3.22157 10.1716 2.74669 10.1716 2.4538 9.87868C2.16091 9.58579 2.16091 9.11092 2.4538 8.81802L5.63578 5.63604C6.89445 4.37737 8.4981 3.5202 10.2439 3.17294Z"
        fill="#383432" />
</svg>

