<svg width="24" height="24" viewBox="0 0 24 24" fill="none" xmlns="http://www.w3.org/2000/svg">
    <path fill-rule="evenodd" clip-rule="evenodd"
        d="M1.5 6C1.5 5.17157 2.17157 4.5 3 4.5H21C21.8284 4.5 22.5 5.17157 22.5 6V18C22.5 18.8284 21.8284 19.5 21 19.5H3C2.17157 19.5 1.5 18.8284 1.5 18V6ZM21 6H3V18H21V6Z"
        fill="#383432" />
    <path fill-rule="evenodd" clip-rule="evenodd"
        d="M14.9996 15.75C14.9996 15.3358 15.3354 15 15.7496 15H18.7496C19.1638 15 19.4996 15.3358 19.4996 15.75C19.4996 16.1642 19.1638 16.5 18.7496 16.5H15.7496C15.3354 16.5 14.9996 16.1642 14.9996 15.75Z"
        fill="#383432" />
    <path fill-rule="evenodd" clip-rule="evenodd"
        d="M10.4996 15.75C10.4996 15.3358 10.8354 15 11.2496 15H12.7496C13.1638 15 13.4996 15.3358 13.4996 15.75C13.4996 16.1642 13.1638 16.5 12.7496 16.5H11.2496C10.8354 16.5 10.4996 16.1642 10.4996 15.75Z"
        fill="#383432" />
    <path fill-rule="evenodd" clip-rule="evenodd"
        d="M1.49963 9.07983C1.49963 8.66562 1.83542 8.32983 2.24963 8.32983H21.7496C22.1638 8.32983 22.4996 8.66562 22.4996 9.07983C22.4996 9.49405 22.1638 9.82983 21.7496 9.82983H2.24963C1.83542 9.82983 1.49963 9.49405 1.49963 9.07983Z"
        fill="#383432" />
</svg>
