<svg width="24" height="24" viewBox="0 0 24 24" fill="none" xmlns="http://www.w3.org/2000/svg">
    <path fill-rule="evenodd" clip-rule="evenodd"
        d="M12 3.75C9.1005 3.75 6.75 6.1005 6.75 9C6.75 11.8995 9.1005 14.25 12 14.25C14.8995 14.25 17.25 11.8995 17.25 9C17.25 6.1005 14.8995 3.75 12 3.75ZM5.25 9C5.25 5.27208 8.27208 2.25 12 2.25C15.7279 2.25 18.75 5.27208 18.75 9C18.75 12.7279 15.7279 15.75 12 15.75C8.27208 15.75 5.25 12.7279 5.25 9Z"
        fill="#383432" />
    <path fill-rule="evenodd" clip-rule="evenodd"
        d="M12.0004 15.75C10.2888 15.75 8.60726 16.2004 7.12482 17.056C5.64237 17.9116 4.41118 19.1422 3.55493 20.6243C3.34772 20.983 2.88899 21.1057 2.53033 20.8985C2.17167 20.6913 2.0489 20.2326 2.25611 19.8739C3.24404 18.1639 4.66457 16.744 6.37501 15.7568C8.08545 14.7697 10.0255 14.25 12.0004 14.25C13.9753 14.25 15.9154 14.7697 17.6258 15.757C19.3362 16.7442 20.7567 18.1641 21.7446 19.8741C21.9518 20.2328 21.829 20.6915 21.4704 20.8987C21.1117 21.1059 20.653 20.9831 20.4458 20.6245C19.5896 19.1424 18.3584 17.9117 16.876 17.0561C15.3935 16.2005 13.712 15.75 12.0004 15.75Z"
        fill="#383432" />
</svg>
