<svg width="20" height="20" viewBox="0 0 20 20" fill="none" xmlns="http://www.w3.org/2000/svg">
    <path fill-rule="evenodd" clip-rule="evenodd"
        d="M10.5112 1.77368C8.50615 1.64821 6.52424 2.25901 4.93766 3.4914C3.35107 4.72378 2.26895 6.49297 1.89448 8.46675C1.52081 10.4363 1.87744 12.4744 2.89739 14.1999C3.0053 14.3751 3.03946 14.5918 2.9801 14.7996L2.09198 17.908L1.46071 17.7277L2.09198 17.908L5.20041 17.0199C5.40504 16.9614 5.62226 16.9932 5.79955 17.1023C7.52518 18.1225 9.56351 18.4792 11.5333 18.1055C13.5071 17.731 15.2763 16.6489 16.5086 15.0623C17.741 13.4757 18.3518 11.4938 18.2263 9.48875C18.1008 7.48369 17.2477 5.5934 15.8271 4.17283C14.4066 2.75227 12.5163 1.89915 10.5112 1.77368ZM5.30894 18.5489C7.28866 19.6349 9.58778 20.0014 11.8129 19.5792C14.1457 19.1366 16.2367 17.8577 17.6932 15.9825C19.1498 14.1073 19.8717 11.7648 19.7234 9.39506C19.5751 7.02527 18.5668 4.79114 16.8878 3.11217C15.2088 1.4332 12.9747 0.424902 10.6049 0.276607C8.23511 0.128312 5.89269 0.850222 4.0175 2.30678C2.14232 3.76334 0.86335 5.85434 0.420767 8.18715C-0.00138018 10.4123 0.365103 12.7114 1.45109 14.6911L0.64969 17.4959C0.576201 17.7531 0.57283 18.0253 0.63993 18.2843C0.70703 18.5432 0.842159 18.7795 1.03131 18.9687C1.22047 19.1578 1.45677 19.293 1.71572 19.3601C1.97467 19.4272 2.24685 19.4238 2.50406 19.3503L5.30894 18.5489Z"
        fill="#383432" />
</svg>
