<svg width="24" height="24" viewBox="0 0 24 24" fill="none" xmlns="http://www.w3.org/2000/svg">
<path fill-rule="evenodd" clip-rule="evenodd" d="M12 6.75C12.4142 6.75 12.75 7.08579 12.75 7.5V12C12.75 12.4142 12.4142 12.75 12 12.75C11.5858 12.75 11.25 12.4142 11.25 12V7.5C11.25 7.08579 11.5858 6.75 12 6.75Z" fill="white"/>
<path fill-rule="evenodd" clip-rule="evenodd" d="M11.3501 11.625C11.5572 11.2663 12.0159 11.1434 12.3746 11.3505L16.2718 13.6005C16.6305 13.8076 16.7534 14.2663 16.5463 14.625C16.3392 14.9837 15.8805 15.1066 15.5218 14.8995L11.6246 12.6495C11.2659 12.4424 11.143 11.9837 11.3501 11.625Z" fill="white"/>
<path fill-rule="evenodd" clip-rule="evenodd" d="M21.0161 4.84839C21.4303 4.84839 21.7661 5.18418 21.7661 5.59839V9.34839C21.7661 9.7626 21.4303 10.0984 21.0161 10.0984H17.2661C16.8519 10.0984 16.5161 9.7626 16.5161 9.34839C16.5161 8.93418 16.8519 8.59839 17.2661 8.59839H20.2661V5.59839C20.2661 5.18418 20.6019 4.84839 21.0161 4.84839Z" fill="white"/>
<path fill-rule="evenodd" clip-rule="evenodd" d="M13.4632 4.64411C12.0083 4.35473 10.5003 4.50325 9.12987 5.07091C7.75943 5.63856 6.58809 6.59986 5.76398 7.83323C4.93987 9.0666 4.5 10.5166 4.5 12C4.5 13.4834 4.93987 14.9334 5.76398 16.1668C6.58809 17.4001 7.75943 18.3614 9.12987 18.9291C10.5003 19.4968 12.0083 19.6453 13.4632 19.3559C14.918 19.0665 16.2544 18.3522 17.3033 17.3033C17.5962 17.0104 18.0711 17.0104 18.364 17.3033C18.6569 17.5962 18.6569 18.0711 18.364 18.364C17.1053 19.6226 15.5016 20.4798 13.7558 20.8271C12.01 21.1743 10.2004 20.9961 8.55585 20.3149C6.91131 19.6337 5.50571 18.4802 4.51677 17.0001C3.52784 15.5201 3 13.78 3 12C3 10.22 3.52784 8.47991 4.51677 6.99987C5.50571 5.51983 6.91131 4.36628 8.55585 3.68509C10.2004 3.0039 12.01 2.82567 13.7558 3.17294C15.5016 3.5202 17.1053 4.37737 18.364 5.63604L21.5459 8.81802C21.8388 9.11092 21.8388 9.58579 21.5459 9.87868C21.253 10.1716 20.7782 10.1716 20.4853 9.87868L17.3033 6.6967C16.2544 5.64781 14.918 4.9335 13.4632 4.64411Z" fill="white"/>
</svg>
