<svg width="24" height="24" viewBox="0 0 24 24" fill="none" xmlns="http://www.w3.org/2000/svg">
<path fill-rule="evenodd" clip-rule="evenodd" d="M1.5 6C1.5 5.17157 2.17157 4.5 3 4.5H21C21.8284 4.5 22.5 5.17157 22.5 6V18C22.5 18.8284 21.8284 19.5 21 19.5H3C2.17157 19.5 1.5 18.8284 1.5 18V6ZM21 6H3V18H21V6Z" fill="#383432"/>
<path fill-rule="evenodd" clip-rule="evenodd" d="M14.9995 15.75C14.9995 15.3358 15.3353 15 15.7495 15H18.7495C19.1637 15 19.4995 15.3358 19.4995 15.75C19.4995 16.1642 19.1637 16.5 18.7495 16.5H15.7495C15.3353 16.5 14.9995 16.1642 14.9995 15.75Z" fill="#383432"/>
<path fill-rule="evenodd" clip-rule="evenodd" d="M10.4995 15.75C10.4995 15.3358 10.8353 15 11.2495 15H12.7495C13.1637 15 13.4995 15.3358 13.4995 15.75C13.4995 16.1642 13.1637 16.5 12.7495 16.5H11.2495C10.8353 16.5 10.4995 16.1642 10.4995 15.75Z" fill="#383432"/>
<path fill-rule="evenodd" clip-rule="evenodd" d="M1.49951 9.0799C1.49951 8.66568 1.8353 8.3299 2.24951 8.3299H21.7495C22.1637 8.3299 22.4995 8.66568 22.4995 9.0799C22.4995 9.49411 22.1637 9.8299 21.7495 9.8299H2.24951C1.8353 9.8299 1.49951 9.49411 1.49951 9.0799Z" fill="#383432"/>
</svg>
