<svg width="48" height="48" viewBox="0 0 48 48" fill="none" xmlns="http://www.w3.org/2000/svg">
    <path fill-rule="evenodd" clip-rule="evenodd" d="M3 12C3 10.3431 4.34315 9 6 9H42C43.6569 9 45 10.3431 45 12V36C45 37.6569 43.6569 39 42 39H6C4.34315 39 3 37.6569 3 36V12ZM42 12H6V36H42V12Z" fill="#57C2E0"/>
    <path fill-rule="evenodd" clip-rule="evenodd" d="M29.999 31.5C29.999 30.6716 30.6706 30 31.499 30H37.499C38.3275 30 38.999 30.6716 38.999 31.5C38.999 32.3284 38.3275 33 37.499 33H31.499C30.6706 33 29.999 32.3284 29.999 31.5Z" fill="#57C2E0"/>
    <path fill-rule="evenodd" clip-rule="evenodd" d="M20.999 31.5C20.999 30.6716 21.6706 30 22.499 30H25.499C26.3275 30 26.999 30.6716 26.999 31.5C26.999 32.3284 26.3275 33 25.499 33H22.499C21.6706 33 20.999 32.3284 20.999 31.5Z" fill="#57C2E0"/>
    <path fill-rule="evenodd" clip-rule="evenodd" d="M2.99902 18.1599C2.99902 17.3314 3.6706 16.6599 4.49902 16.6599H43.499C44.3274 16.6599 44.999 17.3314 44.999 18.1599C44.999 18.9883 44.3274 19.6599 43.499 19.6599H4.49902C3.6706 19.6599 2.99902 18.9883 2.99902 18.1599Z" fill="#57C2E0"/>
    <circle cx="40" cy="34" r="8" fill="#FF8D70"/>
    <path d="M43.1475 31.5575C43.3422 31.3628 43.3422 31.0472 43.1475 30.8525V30.8525C42.9528 30.6578 42.6372 30.6578 42.4425 30.8525L40 33.295L37.5575 30.8525C37.3628 30.6578 37.0472 30.6578 36.8525 30.8525V30.8525C36.6578 31.0472 36.6578 31.3628 36.8525 31.5575L39.295 34L36.8525 36.4425C36.6578 36.6372 36.6578 36.9528 36.8525 37.1475V37.1475C37.0472 37.3422 37.3628 37.3422 37.5575 37.1475L40 34.705L42.4425 37.1475C42.6372 37.3422 42.9528 37.3422 43.1475 37.1475V37.1475C43.3422 36.9528 43.3422 36.6372 43.1475 36.4425L40.705 34L43.1475 31.5575Z" fill="white"/>
</svg>
