<svg width="60" height="62" viewBox="0 0 60 62" fill="none" xmlns="http://www.w3.org/2000/svg">
    <path
        d="M21 8C21 3.58 24.58 0 29 0C33.42 0 37 3.58 37 8C37 12.42 33.42 16 29 16C24.58 16 21 12.42 21 8ZM46.436 32C46.436 28.376 49.376 25.436 53 25.436C56.624 25.436 59.564 28.376 59.564 32C59.564 35.624 56.624 38.564 53 38.564C49.376 38.564 46.436 35.624 46.436 32ZM40.028 48.972C40.028 45.688 42.688 43.028 45.972 43.028C49.256 43.028 51.916 45.688 51.916 48.972C51.916 52.256 49.256 54.916 45.972 54.916C42.688 54.916 40.028 52.256 40.028 48.972ZM23.616 56C23.616 53.028 26.028 50.616 29 50.616C31.972 50.616 34.384 53.028 34.384 56C34.384 58.972 31.972 61.384 29 61.384C26.028 61.384 23.616 58.972 23.616 56ZM7.15198 48.972C7.15198 46.28 9.33598 44.096 12.028 44.096C14.72 44.096 16.904 46.28 16.904 48.972C16.904 51.664 14.72 53.848 12.028 53.848C9.33598 53.848 7.15198 51.664 7.15198 48.972ZM0.583984 32C0.583984 29.56 2.55998 27.584 4.99998 27.584C7.43998 27.584 9.41598 29.56 9.41598 32C9.41598 34.44 7.43998 36.416 4.99998 36.416C2.55998 36.416 0.583984 34.44 0.583984 32ZM8.02798 15.028C8.02798 12.82 9.81998 11.028 12.028 11.028C14.236 11.028 16.028 12.82 16.028 15.028C16.028 17.236 14.236 19.028 12.028 19.028C9.81998 19.028 8.02798 17.236 8.02798 15.028ZM53.216 15.028C53.216 19.028 49.972 22.272 45.968 22.272C41.964 22.272 38.72 19.028 38.72 15.028C38.72 11.024 41.964 7.784 45.968 7.784C49.972 7.784 53.216 11.028 53.216 15.028Z"
        fill="#57C2E0" />
</svg>
