<svg width="40" height="40" viewBox="0 0 40 40" fill="none" xmlns="http://www.w3.org/2000/svg">
    <path fill-rule="evenodd" clip-rule="evenodd"
        d="M12.9463 6.29801C12.9463 6.29801 12.9463 6.29801 12.9463 6.29801V6.29801ZM12.9476 6.30094L16.087 13.6264L13.4891 17.596C13.2527 17.9541 13.113 18.3673 13.0835 18.7955C13.0539 19.225 13.1362 19.6548 13.3223 20.043L14.4494 19.5024L13.3265 20.0517C14.7461 22.9539 17.0987 25.2958 20.0074 26.7021L20.0162 26.7064C20.4068 26.8914 20.8388 26.9716 21.2697 26.939C21.6992 26.9065 22.113 26.7631 22.4704 26.5227C22.4716 26.522 22.4727 26.5212 22.4739 26.5204L26.38 23.9157L33.6983 27.0521C33.5033 28.5561 32.769 29.9384 31.6305 30.9408C30.4891 31.9456 29.0206 32.4999 27.5 32.5M15.5793 18.9674L18.1789 14.9954C18.4046 14.6504 18.5416 14.255 18.5775 13.8443C18.6135 13.4337 18.5473 13.0205 18.3849 12.6416L15.2473 5.32056C15.247 5.31984 15.2467 5.31912 15.2464 5.3184C15.0347 4.82133 14.6674 4.40635 14.1997 4.13584C13.7312 3.86494 13.1875 3.75361 12.6503 3.81862L12.642 3.81965C10.5304 4.0895 8.58954 5.11979 7.18285 6.7176C5.77617 8.31541 5.00011 10.3712 5 12.5C5 18.4673 7.37053 24.1904 11.5901 28.4099C15.8097 32.6295 21.5326 35 27.5 35C29.6288 34.9999 31.6846 34.2239 33.2824 32.8172C34.8802 31.4105 35.9105 29.4696 36.1804 27.358L36.1814 27.3497C36.2464 26.8125 36.1351 26.2688 35.8642 25.8004C35.5936 25.3325 35.1785 24.9651 34.6812 24.7535C34.6806 24.7532 34.68 24.753 34.6794 24.7527L27.3648 21.6179C26.9826 21.454 26.5655 21.3882 26.1513 21.4262C25.7372 21.4643 25.3391 21.605 24.9931 21.8357L21.0813 24.4442C18.688 23.2831 16.7513 21.3554 15.5793 18.9674ZM12.9476 6.30094C11.4436 6.49594 10.0616 7.23108 9.05928 8.36958C8.05444 9.51094 7.50008 10.9794 7.5 12.5001C7.5 17.8044 9.60714 22.8914 13.3579 26.6422C17.1086 30.3929 22.1957 32.5 27.5 32.5"
        fill="#57C2E0" />
</svg>
