<svg width="17" height="16" viewBox="0 0 17 16" fill="none" xmlns="http://www.w3.org/2000/svg">
    <path
        d="M13.1668 8.00004C13.1668 8.36823 12.8684 8.66671 12.5002 8.66671H9.16683V12C9.16683 12.3682 8.86835 12.6667 8.50016 12.6667C8.13197 12.6667 7.8335 12.3682 7.8335 12V8.66671H4.50016C4.13197 8.66671 3.8335 8.36823 3.8335 8.00004C3.8335 7.63185 4.13197 7.33337 4.50016 7.33337H7.8335V4.00004C7.8335 3.63185 8.13197 3.33337 8.50016 3.33337C8.86835 3.33337 9.16683 3.63185 9.16683 4.00004V7.33337H12.5002C12.8684 7.33337 13.1668 7.63185 13.1668 8.00004Z"
        fill="white" />
</svg>
