<svg width="20" height="20" viewBox="0 0 20 20" fill="none" xmlns="http://www.w3.org/2000/svg">
    <path fill-rule="evenodd" clip-rule="evenodd"
        d="M8.875 1.75C4.93997 1.75 1.75 4.93997 1.75 8.875C1.75 12.81 4.93997 16 8.875 16C12.81 16 16 12.81 16 8.875C16 4.93997 12.81 1.75 8.875 1.75ZM0.25 8.875C0.25 4.11154 4.11154 0.25 8.875 0.25C13.6385 0.25 17.5 4.11154 17.5 8.875C17.5 13.6385 13.6385 17.5 8.875 17.5C4.11154 17.5 0.25 13.6385 0.25 8.875Z"
        fill="#57C2E0" />
    <path fill-rule="evenodd" clip-rule="evenodd"
        d="M13.913 13.9135C14.2059 13.6206 14.6808 13.6206 14.9737 13.9135L19.53 18.4698C19.8229 18.7627 19.8229 19.2375 19.53 19.5304C19.2371 19.8233 18.7622 19.8233 18.4693 19.5304L13.913 14.9741C13.6201 14.6812 13.6201 14.2063 13.913 13.9135Z"
        fill="#57C2E0" />
</svg>
