<svg width="48" height="48" viewBox="0 0 48 48" fill="none" xmlns="http://www.w3.org/2000/svg">
<path fill-rule="evenodd" clip-rule="evenodd" d="M39.0149 5.28353C39.5281 5.13877 40.0707 5.13344 40.5867 5.26808C41.1027 5.40272 41.5735 5.67248 41.9506 6.04956C42.3277 6.42664 42.5974 6.89743 42.7321 7.41344C42.8667 7.92945 42.8614 8.47202 42.7166 8.98526L32.8627 43.9217C32.6969 44.5095 32.3557 45.0328 31.8846 45.4214C31.4135 45.8101 30.8349 46.0457 30.2263 46.0968C29.6177 46.1479 29.008 46.012 28.4787 45.7073C27.9493 45.4026 27.5256 44.9436 27.2642 44.3916L19.6606 28.3396L3.60857 20.736C3.0566 20.4745 2.59759 20.0508 2.29287 19.5215C1.98815 18.9922 1.85225 18.3825 1.90333 17.7739C1.95441 17.1652 2.19004 16.5867 2.57872 16.1156C2.9674 15.6445 3.49062 15.3032 4.07844 15.1374L39.0149 5.28353ZM39.8293 8.17088L4.89282 18.0248L20.9449 25.6284L20.3027 26.984L20.9449 25.6284C21.571 25.925 22.0752 26.4291 22.3718 27.0553L21.0162 27.6974L22.3718 27.0553L29.9754 43.1073L39.8293 8.17088Z" fill="#7FD6CE"/>
<path fill-rule="evenodd" clip-rule="evenodd" d="M30.3333 17.6673C30.9191 18.2531 30.9191 19.2029 30.3333 19.7887L21.848 28.2739C21.2622 28.8597 20.3125 28.8597 19.7267 28.2739C19.1409 27.6882 19.1409 26.7384 19.7267 26.1526L28.212 17.6673C28.7978 17.0816 29.7475 17.0816 30.3333 17.6673Z" fill="#7FD6CE"/>
</svg>
