<svg width="20" height="20" viewBox="0 0 20 20" fill="none" xmlns="http://www.w3.org/2000/svg">
<path fill-rule="evenodd" clip-rule="evenodd" d="M9.27608 1.47562C9.48898 1.32869 9.74154 1.25 10.0002 1.25C10.2589 1.25 10.5115 1.32869 10.7244 1.47562C10.9357 1.6215 11.0981 1.82777 11.1902 2.0674L12.9115 6.40201C12.9137 6.40778 12.9176 6.41281 12.9225 6.41648C12.9273 6.42001 12.933 6.42217 12.9389 6.42273C12.9391 6.42275 12.9394 6.42277 12.9396 6.42279L17.5499 6.72199C18.7395 6.79919 19.1567 8.29292 18.2811 9.0217L14.7507 11.9601C14.7505 11.9603 14.7503 11.9605 14.75 11.9607C14.7419 11.9678 14.7358 11.977 14.7325 11.9873C14.7291 11.9979 14.7288 12.0093 14.7316 12.0201L14.732 12.0217L15.8704 16.5C16.147 17.5882 14.973 18.5731 13.9506 17.9253L10.0103 15.4289L10.3448 14.901L10.0092 15.4282C10.0065 15.4265 10.0034 15.4256 10.0002 15.4256C9.99827 15.4256 9.99634 15.4259 9.99452 15.4266C9.99338 15.427 9.99228 15.4276 9.99124 15.4282L9.99011 15.4289L6.32841 17.7488C5.20527 18.4604 3.90619 17.3806 4.21273 16.1748L5.2685 12.0217L5.2689 12.0201C5.27168 12.0093 5.27135 11.9979 5.26796 11.9873C5.26466 11.977 5.25858 11.9678 5.25041 11.9607C5.25019 11.9605 5.24996 11.9603 5.24973 11.9601L1.71934 9.0217C0.843728 8.29292 1.26097 6.79919 2.45053 6.72199L7.06158 6.42273C7.06749 6.42217 7.07314 6.42001 7.07792 6.41648C7.0829 6.41281 7.08674 6.40779 7.08898 6.40202L7.09073 6.39751L8.81024 2.0674C8.90236 1.82777 9.06471 1.6215 9.27608 1.47562ZM10.6798 14.3733C10.68 14.3735 10.6803 14.3736 10.6805 14.3737L14.6196 16.8694C14.6239 16.8721 14.6269 16.8736 14.6285 16.8743L14.6296 16.8747C14.6317 16.8741 14.6361 16.8724 14.642 16.868C14.6511 16.861 14.657 16.8522 14.6597 16.845C14.661 16.8417 14.6618 16.838 14.6621 16.8334C14.6623 16.829 14.6622 16.8207 14.6589 16.8079L13.5209 12.3312C13.5208 12.331 13.5208 12.3307 13.5207 12.3304C13.4596 12.092 13.4669 11.8412 13.5419 11.6067C13.6169 11.3719 13.7567 11.1632 13.9451 11.0043L13.9481 11.0018L17.4815 8.06094C17.4896 8.05418 17.4931 8.04925 17.4947 8.04682C17.4963 8.04419 17.4976 8.04136 17.4986 8.03771C17.5007 8.02947 17.5015 8.01527 17.4964 7.99871C17.4912 7.98212 17.4835 7.9739 17.4811 7.97191C17.4803 7.97121 17.4802 7.97122 17.4801 7.97122C17.48 7.97116 17.4793 7.97087 17.4778 7.97052C17.4762 7.97018 17.4734 7.96965 17.469 7.96936L12.8505 7.66963C12.6081 7.65231 12.3756 7.56647 12.1801 7.42214C11.9854 7.27837 11.8353 7.08245 11.7472 6.85702L10.027 2.52502L10.0235 2.51607C10.0217 2.51135 10.0185 2.50728 10.0144 2.50441C10.0102 2.50154 10.0053 2.5 10.0002 2.5C9.99517 2.5 9.99024 2.50154 9.98608 2.50441C9.98192 2.50728 9.97873 2.51135 9.97694 2.51607L9.97346 2.52502L8.25323 6.85702C8.16514 7.08244 8.01507 7.27837 7.82032 7.42214C7.62481 7.56647 7.39232 7.65229 7.14992 7.66961L7.14586 7.6699L2.53149 7.96936C2.52705 7.96965 2.52421 7.97018 2.52269 7.97052C2.5218 7.97073 2.52118 7.97091 2.5208 7.97104C2.52053 7.97113 2.52086 7.97102 2.5208 7.97104C2.52079 7.97104 2.52015 7.97121 2.51933 7.97191C2.51697 7.9739 2.50927 7.98212 2.5041 7.99871C2.49896 8.01527 2.49973 8.02947 2.5019 8.03771C2.50286 8.04136 2.50414 8.04419 2.50579 8.04682C2.50733 8.04925 2.51086 8.05418 2.51899 8.06094L6.05237 11.0018L6.05536 11.0043C6.24378 11.1632 6.38355 11.3719 6.45859 11.6067C6.53354 11.8411 6.54088 12.0919 6.47979 12.3303C6.47971 12.3306 6.47963 12.3309 6.47956 12.3312L5.4242 16.4828C5.40123 16.5731 5.43323 16.642 5.49013 16.6851C5.51939 16.7073 5.54921 16.7171 5.57325 16.7187C5.59334 16.7201 5.62118 16.7172 5.65943 16.6929L9.31999 14.3737C9.3202 14.3736 9.32042 14.3735 9.32063 14.3733C9.52377 14.2442 9.7595 14.1756 10.0002 14.1756C10.241 14.1756 10.4767 14.2442 10.6798 14.3733Z" fill="white"/>
</svg>
